<svg width="207" height="162" viewBox="0 0 207 162" fill="none" xmlns="http://www.w3.org/2000/svg">
<mask id="path-1-inside-1_299_649" fill="white">
<path fill-rule="evenodd" clip-rule="evenodd" d="M185 0H0V162H185V95.5768L207 70.8211L185 70.8211V0Z"/>
</mask>
<path fill-rule="evenodd" clip-rule="evenodd" d="M185 0H0V162H185V95.5768L207 70.8211L185 70.8211V0Z" fill="#FFF1CE"/>
<path d="M0 0V-2H-2V0H0ZM185 0H187V-2H185V0ZM0 162H-2V164H0V162ZM185 162V164H187V162H185ZM185 95.5768L183.505 94.2483L183 94.8165V95.5768H185ZM207 70.8211L208.495 72.1497L211.453 68.8211L207 68.8211L207 70.8211ZM185 70.8211H183V72.821L185 72.8211L185 70.8211ZM0 2H185V-2H0V2ZM2 162V0H-2V162H2ZM185 160H0V164H185V160ZM183 95.5768V162H187V95.5768H183ZM186.495 96.9054L208.495 72.1497L205.505 69.4926L183.505 94.2483L186.495 96.9054ZM207 68.8211L185 68.8211L185 72.8211L207 72.8211L207 68.8211ZM183 0V70.8211H187V0H183Z" fill="black" fill-opacity="0.5" mask="url(#path-1-inside-1_299_649)"/>
</svg>
