<svg width="207" height="130" viewBox="0 0 207 130" fill="none" xmlns="http://www.w3.org/2000/svg">
<mask id="path-1-inside-1_315_652" fill="white">
<path fill-rule="evenodd" clip-rule="evenodd" d="M185 0H0V130H185V76.6968L207 56.8313L185 56.8312V0Z"/>
</mask>
<path fill-rule="evenodd" clip-rule="evenodd" d="M185 0H0V130H185V76.6968L207 56.8313L185 56.8312V0Z" fill="#FFF1CE"/>
<path d="M0 0V-2H-2V0H0ZM185 0H187V-2H185V0ZM0 130H-2V132H0V130ZM185 130V132H187V130H185ZM185 76.6968L183.66 75.2125L183 75.8081V76.6968H185ZM207 56.8313L208.34 58.3157L212.199 54.8313L207 54.8313L207 56.8313ZM185 56.8312H183V58.8312L185 58.8312L185 56.8312ZM0 2H185V-2H0V2ZM2 130V0H-2V130H2ZM185 128H0V132H185V128ZM183 76.6968V130H187V76.6968H183ZM186.34 78.1812L208.34 58.3157L205.66 55.3469L183.66 75.2125L186.34 78.1812ZM207 54.8313L185 54.8312L185 58.8312L207 58.8313L207 54.8313ZM183 0V56.8312H187V0H183Z" fill="#7B7B7B" mask="url(#path-1-inside-1_315_652)"/>
</svg>
