<svg width="40" height="40" viewBox="0 0 40 40" fill="none" xmlns="http://www.w3.org/2000/svg">
<g clip-path="url(#clip0_95_1353)">
<path d="M19.7123 40.0001C30.5829 40.0001 39.4399 31.0242 39.4399 20.0078C39.4399 9.00659 30.5829 0.0307617 19.7123 0.0307617C8.85692 0.0307617 0 9.00659 0 20.0078C0 31.0242 8.85692 40.0001 19.7123 40.0001Z" fill="#94281D" fill-opacity="0.25"/>
<path d="M14.2922 11.2925C16.1998 11.2925 17.9106 12.075 18.925 13.4099C19.0917 13.64 19.0917 13.7014 19.0917 13.9469V28.1395C19.0917 28.3543 18.9554 28.5076 18.7433 28.5076C18.6222 28.5076 18.5314 28.4616 18.4255 28.3695C17.305 27.4183 15.9576 26.9273 14.5344 26.9273C12.8236 26.9273 11.2339 27.5104 10.0984 28.5384C9.91672 28.6918 9.73505 28.7532 9.50794 28.7532C9.12944 28.7532 8.87207 28.5076 8.87207 28.1395V14.5453C8.87207 14.2077 8.8872 14.1157 8.99318 13.9162C9.96214 12.2438 12.1877 11.2925 14.2922 11.2925ZM25.1628 11.2925C27.252 11.2925 29.4777 12.2438 30.4617 13.9162C30.5677 14.1003 30.5829 14.2077 30.5829 14.5453V28.1395C30.5829 28.5076 30.3254 28.7532 29.9318 28.7532C29.7048 28.7532 29.5231 28.6918 29.3565 28.5384C28.2362 27.5104 26.6465 26.9273 24.9054 26.9273C23.5125 26.9273 22.1499 27.4183 21.0296 28.3695C20.9235 28.4616 20.8327 28.5076 20.7116 28.5076C20.4997 28.5076 20.3482 28.3543 20.3482 28.1395V13.9469C20.3482 13.7014 20.3634 13.64 20.5299 13.4099C21.5443 12.075 23.2551 11.2925 25.1628 11.2925Z" fill="#94281D"/>
</g>
<defs>
<clipPath id="clip0_95_1353">
<rect width="40" height="40" fill="white"/>
</clipPath>
</defs>
</svg>
