<svg width="30" height="30" viewBox="0 0 30 30" fill="none" xmlns="http://www.w3.org/2000/svg">
<path d="M14.9942 30C23.263 30 30 23.263 30 15.0057C30 6.73703 23.263 0 14.9942 0C6.73703 0 0 6.73703 0 15.0057C0 23.263 6.73703 30 14.9942 30Z" fill="#94281D"/>
<path d="M10.6057 20.6606C10.0721 20.6606 9.64307 20.2316 9.64307 19.6875C9.64307 19.4364 9.7477 19.1957 9.93604 19.0074L13.797 15.1465L9.93604 11.2855C9.7477 11.0972 9.64307 10.867 9.64307 10.6054C9.64307 10.0718 10.0721 9.66375 10.6057 9.66375C10.8777 9.66375 11.087 9.75791 11.2753 9.94625L15.1467 13.8072L19.039 9.93578C19.2483 9.72652 19.4575 9.64282 19.7191 9.64282C20.2423 9.64282 20.6713 10.0613 20.6713 10.5845C20.6713 10.8565 20.598 11.0658 20.3887 11.2751L16.5173 15.1465L20.3783 18.9969C20.5771 19.1852 20.6608 19.4259 20.6608 19.6875C20.6608 20.2316 20.2318 20.6606 19.6982 20.6606C19.4262 20.6606 19.1855 20.5559 18.9972 20.3675L15.1467 16.5066L11.3067 20.3675C11.1184 20.5559 10.8777 20.6606 10.6057 20.6606Z" fill="#F6E6BF"/>
</svg>
